# xmcd
# Copyright (C) 1995-1998 Ti Kan
#
# Track frame offsets:
#       150
#       16564
#       43669
#       67480
#       90026
#       112851
#       141738
#       158452
#       176198
#       206157
#       226949
#
# Disc length: 3469 seconds
#
# Revision: 0
# Processed by: cddbd v1.4PL0 Copyright (c) Steve Scherf et al.
# Submitted via: CD-Transfer v1.0
#
DISCID=8d0d8b0b
DTITLE=Trust - Trust The Blues
DYEAR=1991
DGENRE=
TTITLE0=Tell Me Baby
TTITLE1=Sweet Secret
TTITLE2=Six' O Two
TTITLE3=You Got The Blues
TTITLE4=The Lie
TTITLE5=Too Much To Bear
TTITLE6=Carol
TTITLE7=What They Call The Blues
TTITLE8=French Kiss Blues
TTITLE9=Dust My Blues
TTITLE10=Pictures Of Fantasy
EXTD=
EXTT0=
EXTT1=
EXTT2=
EXTT3=
EXTT4=
EXTT5=
EXTT6=
EXTT7=
EXTT8=
EXTT9=
EXTT10=
PLAYORDER=
